<svg xmlns="http://www.w3.org/2000/svg" viewBox="0 0 64 64" width="64px" height="64px">
  <linearGradient id="ZB9UBoAObX9BylVglUK1ka" x1="29" x2="29" y1="7.766" y2="57.174" gradientUnits="userSpaceOnUse">
    <stop offset="0" stop-color="#1a6dff" />
    <stop offset="1" stop-color="#c822ff" />
  </linearGradient>
  <path fill="url(#ZB9UBoAObX9BylVglUK1ka)" d="M50,58h-4c-6.065,0-11-4.935-11-11V16h-7v39c0,1.654-1.346,3-3,3h-4c-1.654,0-3-1.346-3-3V16 h-2c-0.552,0-1,0.448-1,1v3c0,1.654-1.346,3-3,3H8c-1.654,0-3-1.346-3-3v-3C5,10.935,9.935,6,16,6h34c1.654,0,3,1.346,3,3v4 c0,1.654-1.346,3-3,3h-5v31c0,0.552,0.448,1,1,1h4c1.654,0,3,1.346,3,3v4C53,56.654,51.654,58,50,58z M27,14h9c0.553,0,1,0.447,1,1 v32c0,4.963,4.037,9,9,9h4c0.552,0,1-0.448,1-1v-4c0-0.552-0.448-1-1-1h-4c-1.654,0-3-1.346-3-3V15c0-0.553,0.447-1,1-1h6 c0.552,0,1-0.448,1-1V9c0-0.552-0.448-1-1-1H16c-4.963,0-9,4.037-9,9v3c0,0.552,0.448,1,1,1h4c0.552,0,1-0.448,1-1v-3 c0-1.654,1.346-3,3-3h3c0.553,0,1,0.447,1,1v40c0,0.552,0.448,1,1,1h4c0.552,0,1-0.448,1-1V15C26,14.447,26.447,14,27,14z" />
  <linearGradient id="ZB9UBoAObX9BylVglUK1kb" x1="29" x2="29" y1="9.553" y2="55.692" gradientUnits="userSpaceOnUse">
    <stop offset="0" stop-color="#6dc7ff" />
    <stop offset="1" stop-color="#e6abff" />
  </linearGradient>
  <path fill="url(#ZB9UBoAObX9BylVglUK1kb)" d="M49,12v-2H16c-3.859,0-7,3.141-7,7v2h2v-2c0-2.757,2.243-5,5-5h6v42h2V12h15v35 c0,3.859,3.141,7,7,7h3v-2h-3c-2.757,0-5-2.243-5-5V12H49z" />
</svg>