<svg xmlns="http://www.w3.org/2000/svg" viewBox="0 0 100 100" width="100px" height="100px">
  <path d="M0,75.002l-0.001-3.999l51.999-0.003 c3.323,0,6.18-2.029,7.387-4.924c0.36-0.864,1.272-1.363,2.193-1.2c0.461,0.081,0.935,0.124,1.421,0.124c4.415,0,8-3.585,8-8.001 c0-2.961-1.615-5.555-4.021-6.941c-0.579-0.333-0.953-0.933-0.997-1.599c-0.28-4.161-3.751-7.459-7.981-7.459 c-0.964,0-1.883,0.171-2.735,0.48c-0.917,0.335-1.944-0.045-2.424-0.896c-1.549-2.74-4.484-4.584-7.841-4.584 c-4.968,0-9,4.035-9,9.001c0,0.205,0.005,0.409,0.019,0.608c0.057,0.872-0.457,1.68-1.272,1.996 c-3.365,1.307-5.747,4.577-5.747,8.393c0,4.968,4.032,9.001,9,9.001h5c0.868,0,1.639,0.563,1.904,1.391 c0.336,1.051,0.833,1.92,1.492,2.611h-4.743l-0.009-0.001h-3.644c-7.177,0-13-5.824-13-13.001c0-4.831,2.639-9.047,6.549-11.287 l0.476-0.228l0.041-0.811c0.665-6.553,6.204-11.673,12.933-11.673c4.252,0,8.027,2.048,10.396,5.201l0.065,0.1l0.429-0.115 c0.685-0.123,1.391-0.187,2.109-0.187c5.955,0,10.898,4.345,11.837,10.036l0.017,0.143l0.409,0.272 c2.873,2.191,4.736,5.652,4.736,9.548c0,6.625-5.376,12.001-12,12.001l-0.597-0.051l-0.116,0.228 c-2.097,3.487-5.919,5.823-10.286,5.823L0,75.002z M62.833,71.863l0.605-0.861h36.559v4h-40.79 C60.589,74.17,61.816,73.106,62.833,71.863z" fill="#FFFFFF" />
</svg>